<svg xmlns="http://www.w3.org/2000/svg" width="100" height="20" viewBox="0 0 100 20">
    <path fill="#888" fill-rule="evenodd" d="M8.517 0c2.864 0 5.283.867 6.847 3.027.578.799.874 2.194-.021 2.993-1.216 1.088-2.878.815-3.723-.1-1.121-1.214-2.097-1.433-2.097-1.433-.419-.135-.933-.178-1.47-.147-.993.058-1.678.588-1.653 1.435.032 1.145 1.431 1.43 3.286 2.058 2.682.909 6.824 1.714 6.879 5.959.05 4.105-3.413 6.208-8.12 6.208-2.33 0-3.97-.378-5.744-1.362-1.034-.573-1.822-1.29-2.185-1.91-1.308-2.239.283-3.326.283-3.326 1.944-1.389 3.729.453 3.729.453.77.68 1.49 1.102 2.131 1.327.582.208 1.525.346 1.904.346.612 0 1.422-.071 1.925-.453.485-.367.597-1.002.358-1.54-.236-.535-.787-.794-.939-.858l-.04-.015c-.923-.365-2.51-.838-2.51-.838C5.092 11.126.874 9.928.801 5.99.734 2.303 3.735 0 8.517 0zm20.129.169c3.894 0 6.774 2.048 8.36 5.071.055.106.25.515.395.925.516 1.446-.251 2.882-1.666 3.318l-10.83 3.335c.476 1.675 2.036 2.553 3.841 2.553 1.215 0 2.628-.26 3.867-1.653.253-.284.627-.558.981-.705.282-.117.585-.179.89-.179.969 0 1.81.511 2.136 1.433.703 1.982-1.454 3.61-1.454 3.61-1.698 1.31-4.01 1.953-6.45 1.953-5.937 0-9.625-4.4-9.625-9.83 0-5.762 4.013-9.832 9.555-9.832zm21.06 0c3.896 0 6.775 2.048 8.36 5.071.056.106.249.515.395.925.517 1.446-.25 2.882-1.666 3.318l-10.829 3.335c.476 1.675 2.036 2.553 3.841 2.553 1.215 0 2.628-.26 3.867-1.653.253-.284.626-.558.98-.705.282-.117.586-.179.892-.179.969 0 1.808.511 2.134 1.433.704 1.982-1.453 3.61-1.453 3.61-1.7 1.31-4.01 1.953-6.45 1.953-5.937 0-9.625-4.4-9.625-9.83 0-5.762 4.013-9.832 9.554-9.832zm41.057.38c3.796 0 6.111 2.08 6.58 2.542l.065.065C99.743 5.45 100 8.165 100 9.224v7.817c0 .331-.069.647-.195.936-.365.865-1.235 1.473-2.248 1.473-1.01 0-1.878-.603-2.248-1.463-.127-.29-.198-.61-.198-.946V9.224c0-.462-.119-1.654-1.214-2.732-.07-.067-1.206-1.149-3.134-1.149-.017 0-.031-.004-.047-.004s-.03.004-.046.004c-1.911 0-3.075 1.088-3.085 1.1-1.146 1.127-1.264 2.319-1.264 2.781v7.817c0 .333-.07.651-.195.94-.37.859-1.237 1.462-2.248 1.462-.675 0-1.287-.27-1.728-.706-.444-.433-.718-1.033-.718-1.696V9.224c0-1.059.257-3.774 2.643-6.118.206-.218 2.568-2.557 6.595-2.557.016 0 .03.005.046.005s.03-.005.047-.005zM75.81.611c.668 0 1.333.234 1.793.709.89.919.88 2.279.098 3.173l-8.373 9.568c-.214.246-.037.625.293.625h6.745c1.298 0 2.462.954 2.53 2.224.072 1.357-1.03 2.479-2.395 2.479H63.64c-.668 0-1.334-.234-1.794-.712-.89-.917-.88-2.277-.099-3.17l8.372-9.57c.215-.246.037-.625-.292-.625h-6.063c-1.3 0-2.463-.953-2.531-2.225C61.16 1.731 62.259.611 63.627.611H75.81zM28.389 4.54c-1.833 0-3.407 1.067-3.94 2.64 0 0-.273.807-.196 1.986l7.563-2.329.358-.112c-.647-1.258-2.12-2.186-3.785-2.186zm21.061 0c-1.833 0-3.407 1.067-3.94 2.64 0 0-.273.807-.196 1.986l7.564-2.329.357-.112c-.646-1.258-2.12-2.186-3.785-2.186z"/>
</svg>
